<svg width="13" height="8" viewBox="0 0 13 8" fill="none" xmlns="http://www.w3.org/2000/svg">
<path d="M7.15103 7.22876L12.2519 2.33173C12.347 2.24041 12.4232 2.13125 12.4762 2.01048C12.5291 1.88972 12.5577 1.75971 12.5604 1.62787C12.5659 1.36163 12.4653 1.10413 12.2809 0.912025C12.1896 0.816906 12.0804 0.740703 11.9596 0.68777C11.8389 0.634837 11.7088 0.60621 11.577 0.603521C11.3108 0.598093 11.0533 0.698652 10.8612 0.883078L6.4844 5.09473L2.28295 0.708168C2.19192 0.612564 2.08286 0.53593 1.96206 0.482688C1.84126 0.429446 1.71111 0.400648 1.57913 0.397957C1.44714 0.395266 1.31593 0.418734 1.19306 0.467008C1.07019 0.515282 0.958101 0.587406 0.863247 0.67922C0.767643 0.770253 0.691008 0.879314 0.637765 1.00011C0.584523 1.12091 0.555726 1.25106 0.553035 1.38304C0.550344 1.51503 0.573812 1.64624 0.622086 1.76911C0.670359 1.89198 0.742485 2.00407 0.834299 2.09892L5.73133 7.19981C5.82236 7.29542 5.93142 7.37205 6.05222 7.4253C6.17302 7.47854 6.30317 7.50734 6.43515 7.51003C6.56714 7.51272 6.69835 7.48925 6.82122 7.44098C6.94409 7.3927 7.05618 7.32058 7.15103 7.22876Z" fill="#26A380"/>
</svg>
